<svg id="SvgjsSvg1310" width="522.5" height="398" xmlns="http://www.w3.org/2000/svg" version="1.1" xmlns:xlink="http://www.w3.org/1999/xlink" xmlns:svgjs="http://svgjs.com/svgjs"><defs id="SvgjsDefs1311"><linearGradient id="SvgjsLinearGradient1314" x1="1" y1="0" x2="0" y2="1"><stop id="SvgjsStop1315" stop-opacity="1" stop-color="#ffffff" offset="0"></stop><stop id="SvgjsStop1316" stop-opacity="1" stop-color="#fbc02d" offset="1"></stop></linearGradient><linearGradient id="SvgjsLinearGradient1323" x1="1" y1="0" x2="0" y2="1"><stop id="SvgjsStop1324" stop-opacity="1" stop-color="#f5fffc" offset="0"></stop><stop id="SvgjsStop1325" stop-opacity="1" stop-color="#8afbff" offset="1"></stop></linearGradient><linearGradient id="SvgjsLinearGradient1348" x1="1" y1="0" x2="0" y2="1"><stop id="SvgjsStop1349" stop-opacity="1" stop-color="#ffffff" offset="0"></stop><stop id="SvgjsStop1350" stop-opacity="1" stop-color="#fbc02d" offset="1"></stop></linearGradient><linearGradient id="SvgjsLinearGradient1357" x1="1" y1="0" x2="0" y2="1"><stop id="SvgjsStop1358" stop-opacity="1" stop-color="#f5fffc" offset="0"></stop><stop id="SvgjsStop1359" stop-opacity="1" stop-color="#8afbff" offset="1"></stop></linearGradient><linearGradient id="SvgjsLinearGradient1378" x1="1" y1="0" x2="0" y2="1"><stop id="SvgjsStop1379" stop-opacity="1" stop-color="#f5fffc" offset="0"></stop><stop id="SvgjsStop1380" stop-opacity="1" stop-color="#8afbff" offset="1"></stop></linearGradient><pattern id="SvgjsPattern1393" x="0" y="0" width="31" height="31" patternUnits="userSpaceOnUse"><image id="SvgjsImage1394" xlink:href="https://iconsapi.com/5ee290e5e4b0b788a9357f87.svg" width="31" height="31" preserveAspectRatio="none" crossOrigin="anonymous" x="0" y="0"></image></pattern><pattern id="SvgjsPattern1397" x="0" y="0" width="31" height="31" patternUnits="userSpaceOnUse"><image id="SvgjsImage1398" xlink:href="https://iconsapi.com/5ee290e5e4b0b788a9357f87.svg" width="31" height="31" preserveAspectRatio="none" crossOrigin="anonymous" x="0" y="0"></image></pattern><pattern id="SvgjsPattern1401" x="0" y="0" width="31" height="31" patternUnits="userSpaceOnUse"><image id="SvgjsImage1402" xlink:href="https://iconsapi.com/5ee290e5e4b0b788a9357f87.svg" width="31" height="31" preserveAspectRatio="none" crossOrigin="anonymous" x="0" y="0"></image></pattern><pattern id="SvgjsPattern1405" x="0" y="0" width="20" height="18" patternUnits="userSpaceOnUse"><image id="SvgjsImage1406" xlink:href="https://iconsapi.com/5ee2694ce4b0b788a9339ccd.svg" width="20" height="18" preserveAspectRatio="none" crossOrigin="anonymous" x="0" y="0"></image></pattern><pattern id="SvgjsPattern1409" x="0" y="0" width="20" height="18" patternUnits="userSpaceOnUse"><image id="SvgjsImage1410" xlink:href="https://iconsapi.com/5ee2694ce4b0b788a9339ccd.svg" width="20" height="18" preserveAspectRatio="none" crossOrigin="anonymous" x="0" y="0"></image></pattern></defs><g id="SvgjsG1312" transform="translate(25,54.5)"><path id="SvgjsPath1313" d="M 0 4Q 0 0 4 0L 162 0Q 166 0 166 4L 166 60Q 166 64 162 64L 4 64Q 0 64 0 60Z" stroke="rgba(102,51,0,1)" stroke-width="1" fill="url(#SvgjsLinearGradient1314)"></path><g id="SvgjsG1317"><text id="SvgjsText1318" font-family="微软雅黑" text-anchor="middle" font-size="15px" width="146px" fill="#323232" font-weight="700" align="middle" lineHeight="125%" anchor="middle" family="微软雅黑" size="15px" weight="700" font-style="" opacity="1" y="20.625" transform="rotate(0)"><tspan id="SvgjsTspan1319" dy="18" x="83"><tspan id="SvgjsTspan1320" style="text-decoration:;">业务复杂度</tspan></tspan></text></g></g><g id="SvgjsG1321" transform="translate(25,116.5)"><path id="SvgjsPath1322" d="M 0 4Q 0 0 4 0L 162 0Q 166 0 166 4L 166 139Q 166 143 162 143L 4 143Q 0 143 0 139Z" stroke="rgba(0,102,102,1)" stroke-width="1" fill="url(#SvgjsLinearGradient1323)"></path><g id="SvgjsG1326"><text id="SvgjsText1327" font-family="微软雅黑" text-anchor="middle" font-size="15px" width="146px" fill="#323232" font-weight="700" align="middle" lineHeight="125%" anchor="middle" family="微软雅黑" size="15px" weight="700" font-style="" opacity="1" y="60.125" transform="rotate(0)"><tspan id="SvgjsTspan1328" dy="18" x="83"><tspan id="SvgjsTspan1329" style="text-decoration:;">技术复杂度</tspan></tspan></text></g></g><g id="SvgjsG1330" transform="translate(205.25,156)"><path id="SvgjsPath1331" d="M 0 8.91L 103.5 8.91L 103.5 0L 117 13.5L 103.5 27L 103.5 18.09L 0 18.09L 0 8.91Z" stroke="rgba(0,153,77,1)" stroke-width="2" fill-opacity="1" fill="#ffffff"></path><g id="SvgjsG1332"><text id="SvgjsText1333" font-family="微软雅黑" text-anchor="middle" font-size="13px" width="117px" fill="#323232" font-weight="400" align="middle" lineHeight="125%" anchor="middle" family="微软雅黑" size="13px" weight="400" font-style="" opacity="1" y="3.875000000000001" transform="rotate(0)"></text></g></g><g id="SvgjsG1334" transform="translate(214.75,141)"><path id="SvgjsPath1335" d="M 0 0L 85.5 0L 85.5 21L 0 21Z" stroke="none" fill="none"></path><g id="SvgjsG1336"><text id="SvgjsText1337" font-family="微软雅黑" text-anchor="middle" font-size="13px" width="86px" fill="#9c4900" font-weight="700" align="middle" lineHeight="125%" anchor="middle" family="微软雅黑" size="13px" weight="700" font-style="" opacity="1" y="0.875" transform="rotate(0)"><tspan id="SvgjsTspan1338" dy="16" x="43"><tspan id="SvgjsTspan1339" style="text-decoration:;">关注点分离</tspan></tspan></text></g></g><g id="SvgjsG1340" transform="translate(213.25,178)"><path id="SvgjsPath1341" d="M 0 0L 88.5 0L 88.5 20L 0 20Z" stroke="none" fill="none"></path><g id="SvgjsG1342"><text id="SvgjsText1343" font-family="微软雅黑" text-anchor="middle" font-size="13px" width="89px" fill="#9c4900" font-weight="700" align="middle" lineHeight="125%" anchor="middle" family="微软雅黑" size="13px" weight="700" font-style="" opacity="1" y="0.375" transform="rotate(0)"><tspan id="SvgjsTspan1344" dy="16" x="44.5"><tspan id="SvgjsTspan1345" style="text-decoration:;">基础设施下沉</tspan></tspan></text></g></g><g id="SvgjsG1346" transform="translate(338,25)"><path id="SvgjsPath1347" d="M 0 4Q 0 0 4 0L 154 0Q 158 0 158 4L 158 66Q 158 70 154 70L 4 70Q 0 70 0 66Z" stroke="rgba(102,51,0,1)" stroke-width="1" fill="url(#SvgjsLinearGradient1348)"></path><g id="SvgjsG1351"><text id="SvgjsText1352" font-family="微软雅黑" text-anchor="middle" font-size="15px" width="138px" fill="#323232" font-weight="700" align="middle" lineHeight="125%" anchor="middle" family="微软雅黑" size="15px" weight="700" font-style="" opacity="1" y="23.625" transform="rotate(0)"><tspan id="SvgjsTspan1353" dy="18" x="79"><tspan id="SvgjsTspan1354" style="text-decoration:;">业务复杂度</tspan></tspan></text></g></g><g id="SvgjsG1355" transform="translate(338,95)"><path id="SvgjsPath1356" d="M 0 4Q 0 0 4 0L 154 0Q 158 0 158 4L 158 28Q 158 32 154 32L 4 32Q 0 32 0 28Z" stroke="rgba(0,102,102,1)" stroke-width="1" fill="url(#SvgjsLinearGradient1357)"></path><g id="SvgjsG1360"><text id="SvgjsText1361" font-family="微软雅黑" text-anchor="middle" font-size="15px" width="138px" fill="#323232" font-weight="700" align="middle" lineHeight="125%" anchor="middle" family="微软雅黑" size="15px" weight="700" font-style="" opacity="1" y="4.625" transform="rotate(0)"><tspan id="SvgjsTspan1362" dy="18" x="79"><tspan id="SvgjsTspan1363" style="text-decoration:;">技术复杂度</tspan></tspan></text></g></g><g id="SvgjsG1364" transform="translate(357,127)"><path id="SvgjsPath1365" d="M 0 0L 120 0L 120 29L 0 29Z" stroke="none" fill="none"></path><g id="SvgjsG1366"><text id="SvgjsText1367" font-family="微软雅黑" text-anchor="middle" font-size="13px" width="120px" fill="#323232" font-weight="700" align="middle" lineHeight="125%" anchor="middle" family="微软雅黑" size="13px" weight="700" font-style="" opacity="1" y="4.875" transform="rotate(0)"><tspan id="SvgjsTspan1368" dy="16" x="60"><tspan id="SvgjsTspan1369" style="text-decoration:;">EDK开发者职责</tspan></tspan></text></g></g><g id="SvgjsG1370" transform="translate(49.5,261.5)"><path id="SvgjsPath1371" d="M 0 0L 117 0L 117 23L 0 23Z" stroke="none" fill="none"></path><g id="SvgjsG1372"><text id="SvgjsText1373" font-family="微软雅黑" text-anchor="middle" font-size="13px" width="117px" fill="#323232" font-weight="700" align="middle" lineHeight="125%" anchor="middle" family="微软雅黑" size="13px" weight="700" font-style="" opacity="1" y="1.875" transform="rotate(0)"><tspan id="SvgjsTspan1374" dy="16" x="58.5"><tspan id="SvgjsTspan1375" style="text-decoration:;">传统开发者职责</tspan></tspan></text></g></g><g id="SvgjsG1376" transform="translate(338,188)"><path id="SvgjsPath1377" d="M 0 4Q 0 0 4 0L 154 0Q 158 0 158 4L 158 139Q 158 143 154 143L 4 143Q 0 143 0 139Z" stroke="rgba(0,102,102,1)" stroke-width="1" fill="url(#SvgjsLinearGradient1378)"></path><g id="SvgjsG1381"><text id="SvgjsText1382" font-family="微软雅黑" text-anchor="middle" font-size="15px" width="138px" fill="#323232" font-weight="700" align="middle" lineHeight="125%" anchor="middle" family="微软雅黑" size="15px" weight="700" font-style="" opacity="1" y="60.125" transform="rotate(0)"><tspan id="SvgjsTspan1383" dy="18" x="79"><tspan id="SvgjsTspan1384" style="text-decoration:;">技术复杂度</tspan></tspan></text></g></g><g id="SvgjsG1385" transform="translate(336.5,345)"><path id="SvgjsPath1386" d="M 0 0L 161 0L 161 28L 0 28Z" stroke="none" fill="none"></path><g id="SvgjsG1387"><text id="SvgjsText1388" font-family="微软雅黑" text-anchor="middle" font-size="15px" width="161px" fill="#4c0099" font-weight="700" align="middle" lineHeight="125%" anchor="middle" family="微软雅黑" size="15px" weight="700" font-style="" opacity="1" y="2.625" transform="rotate(0)"><tspan id="SvgjsTspan1389" dy="18" x="80.5"><tspan id="SvgjsTspan1390" style="text-decoration:;">EDK开发平台职责</tspan></tspan></text></g></g><g id="SvgjsG1391" transform="translate(26,119.5)"><path id="SvgjsPath1392" d="M 0 0L 31 0L 31 31L 0 31Z" stroke="none" fill="url(#SvgjsPattern1393)" opacity="1"></path></g><g id="SvgjsG1395" transform="translate(343.5,191)"><path id="SvgjsPath1396" d="M 0 0L 31 0L 31 31L 0 31Z" stroke="none" fill="url(#SvgjsPattern1397)" opacity="1"></path></g><g id="SvgjsG1399" transform="translate(338,96)"><path id="SvgjsPath1400" d="M 0 0L 31 0L 31 31L 0 31Z" stroke="none" fill="url(#SvgjsPattern1401)" opacity="1"></path></g><g id="SvgjsG1403" transform="translate(29.5,60.5)"><path id="SvgjsPath1404" d="M 0 0L 20 0L 20 18L 0 18Z" stroke="none" fill="url(#SvgjsPattern1405)" opacity="1"></path></g><g id="SvgjsG1407" transform="translate(343.5,33)"><path id="SvgjsPath1408" d="M 0 0L 20 0L 20 18L 0 18Z" stroke="none" fill="url(#SvgjsPattern1409)" opacity="1"></path></g></svg>